<?xml version="1.0" encoding="utf-8"?>
<!-- Generator: Adobe Illustrator 19.0.0, SVG Export Plug-In . SVG Version: 6.00 Build 0)  -->
<!DOCTYPE svg PUBLIC "-//W3C//DTD SVG 1.1//EN" "http://www.w3.org/Graphics/SVG/1.1/DTD/svg11.dtd">
<svg version="1.1" id="Capa_1" xmlns="http://www.w3.org/2000/svg" xmlns:xlink="http://www.w3.org/1999/xlink" x="0px" y="0px"
	 viewBox="12 117 792 792" style="enable-background:new 12 117 792 792;" xml:space="preserve">
<style type="text/css">
	.st0{fill:#FFFFFF;}
</style>
<g>
	<path class="st0" d="M569.8,909c0,0,71.9,0,71.9-72V189c0-72-71.9-72-71.9-72H246.2c0,0-71.9,0-71.9,72v648c0,72,71.9,72,71.9,72
		H569.8z M408,879c-19.8,0-35.9-16.1-35.9-35.9c0-19.8,16.1-35.9,35.9-35.9s35.9,16.1,35.9,35.9C443.9,862.9,427.8,879,408,879z
		 M318.1,160.9c0-4.5,3.6-7.9,7.9-7.9h163.8c4.4,0,8,3.6,8,7.9v2.1c0,4.5-3.6,7.9-7.9,7.9H326.1c-4.3,0-7.9-3.6-7.9-7.9V160.9z
		 M210.3,206.9h395.4V782H210.3V206.9z"/>
</g>
</svg>
