<?xml version="1.0" encoding="utf-8"?>
<!-- Generator: Adobe Illustrator 19.0.0, SVG Export Plug-In . SVG Version: 6.00 Build 0)  -->
<!DOCTYPE svg PUBLIC "-//W3C//DTD SVG 1.1//EN" "http://www.w3.org/Graphics/SVG/1.1/DTD/svg11.dtd">
<svg version="1.1" id="Capa_1" xmlns="http://www.w3.org/2000/svg" xmlns:xlink="http://www.w3.org/1999/xlink" x="0px" y="0px"
	 viewBox="-367 497 32 32" style="enable-background:new -367 497 32 32;" xml:space="preserve">
<style type="text/css">
	.st0{fill:#FFFFFF;}
</style>
<g>
	<path class="st0" d="M-337.1,505c-1.4-1.8-3.4-3.1-5.8-4.2c-2.5-1-5.1-1.5-8-1.5c-2.9,0-5.6,0.5-8,1.5c-2.5,1-4.4,2.4-5.8,4.2
		c-1.4,1.8-2.1,3.7-2.1,5.7c0,1.8,0.5,3.5,1.6,5c1.1,1.6,2.6,2.9,4.4,3.9c-0.1,0.5-0.3,0.9-0.5,1.4c-0.2,0.4-0.3,0.8-0.5,1.1
		c-0.1,0.3-0.3,0.6-0.6,0.9c-0.2,0.3-0.4,0.6-0.6,0.7c-0.1,0.1-0.3,0.4-0.6,0.7c-0.3,0.3-0.5,0.5-0.6,0.6c0,0-0.1,0.1-0.1,0.2
		c-0.1,0.1-0.1,0.2-0.1,0.2l-0.1,0.2c-0.1,0.1-0.1,0.1-0.1,0.2c0,0,0,0.1,0,0.2c0,0.1,0,0.2,0,0.2v0c0,0.2,0.1,0.4,0.3,0.5
		c0.1,0.1,0.3,0.2,0.5,0.2h0.1c0.8-0.1,1.5-0.2,2-0.4c3.1-0.8,5.9-2.2,8.2-4.3c0.9,0.1,1.8,0.1,2.6,0.1c2.9,0,5.6-0.5,8-1.5
		c2.5-1,4.4-2.4,5.8-4.2c1.4-1.8,2.1-3.7,2.1-5.7C-335,508.6-335.7,506.7-337.1,505z M-339.2,515.3c-1.2,1.4-2.9,2.5-5,3.3
		c-2.1,0.8-4.4,1.2-6.8,1.2c-0.7,0-1.5,0-2.3-0.1l-1-0.1l-0.8,0.7c-1.5,1.3-3.1,2.3-4.9,3.1c0.5-1,1-2,1.3-3.1l0.5-1.7l-1.6-0.9
		c-1.5-0.9-2.7-1.9-3.6-3.1c-0.9-1.2-1.3-2.5-1.3-3.8c0-1.6,0.6-3.1,1.9-4.6c1.2-1.4,2.9-2.5,5-3.3c2.1-0.8,4.4-1.2,6.8-1.2
		c2.4,0,4.7,0.4,6.8,1.2c2.1,0.8,3.8,1.9,5,3.3c1.2,1.4,1.9,2.9,1.9,4.6S-337.9,513.9-339.2,515.3z"/>
</g>
</svg>
