<?xml version="1.0" encoding="utf-8"?>
<!-- Generator: Adobe Illustrator 19.0.0, SVG Export Plug-In . SVG Version: 6.00 Build 0)  -->
<!DOCTYPE svg PUBLIC "-//W3C//DTD SVG 1.1//EN" "http://www.w3.org/Graphics/SVG/1.1/DTD/svg11.dtd">
<svg version="1.1" id="Capa_1" xmlns="http://www.w3.org/2000/svg" xmlns:xlink="http://www.w3.org/1999/xlink" x="0px" y="0px"
	 viewBox="-137 267.4 491.6 491.6" style="enable-background:new -137 267.4 491.6 491.6;" xml:space="preserve">
<style type="text/css">
	.st0{fill:#FFFFFF;}
</style>
<g>
	<g>
		<path class="st0" d="M108.8,267.4c-92,0-166.8,74.8-166.8,166.8c0,37,21.8,93.2,68.5,176.9c31.9,57.1,63.6,105.4,65,107.4
			l22.9,34.8c2.3,3.5,6.2,5.6,10.4,5.6s8.1-2.1,10.4-5.6l22.9-34.8c1.3-2,32.8-49.9,65-107.4c46.7-83.7,68.5-140,68.5-176.9
			C275.6,342.3,200.8,267.4,108.8,267.4z M185.3,599c-31.7,56.8-62.7,103.9-64,105.8l-12.5,19l-12.5-19c-1.3-2-32.6-49.5-64-105.9
			C-11.1,521.3-33,465.9-33,434.3c0-78.2,63.6-141.8,141.8-141.8S250.6,356,250.6,434.3C250.6,465.9,228.6,521.3,185.3,599z"/>
		<path class="st0" d="M108.8,340.7c-51,0-92.5,41.5-92.5,92.5c0,51,41.5,92.5,92.5,92.5s92.5-41.5,92.5-92.5
			S159.8,340.7,108.8,340.7z M108.8,500.7c-37.2,0-67.5-30.3-67.5-67.5c0-37.2,30.3-67.5,67.5-67.5c37.2,0,67.5,30.3,67.5,67.5
			C176.3,470.4,146,500.7,108.8,500.7z"/>
	</g>
</g>
</svg>
